<svg width="23" height="23" viewBox="0 0 23 23" fill="none" xmlns="http://www.w3.org/2000/svg">
<path d="M14.55 18.9242L13.897 19.0992C12.3661 19.5084 10.744 19.4119 9.27247 18.8239C7.80096 18.2359 6.55893 17.188 5.73164 15.8364C4.90434 14.4849 4.5361 12.9021 4.68183 11.3242C4.82756 9.74628 5.47946 8.25773 6.5403 7.08057C7.60114 5.90341 9.01407 5.10071 10.5684 4.79217C12.1227 4.48364 13.7351 4.6858 15.1651 5.36852C16.5952 6.05124 17.7662 7.17793 18.5036 8.58055C19.2409 9.98318 19.5052 11.5866 19.2568 13.1516" stroke="#FAC9B8" stroke-width="1.5" stroke-linecap="round" stroke-linejoin="round"/>
<path d="M16.3227 10.5607L9.70682 14.3848L8.56115 12.4004" stroke="#FAC9B8" stroke-width="1.5" stroke-linecap="round" stroke-linejoin="round"/>
<path d="M14.1469 19.5031L13.3472 19.7174C11.4722 20.2186 9.48549 20.1003 7.68326 19.3802C5.88103 18.6601 4.35987 17.3766 3.34664 15.7213C2.33342 14.0661 1.88242 12.1276 2.0609 10.195C2.23938 8.26247 3.03779 6.43938 4.33704 4.99766C5.6363 3.55594 7.36679 2.57283 9.27043 2.19495C11.1741 1.81708 13.1489 2.06468 14.9003 2.90084C16.6517 3.73699 18.0859 5.1169 18.989 6.83476C19.8921 8.55261 20.2157 10.5164 19.9115 12.4332" stroke="#404040" stroke-width="1.5" stroke-linecap="round" stroke-linejoin="round"/>
<path d="M16.2014 8.47284L7.19828 13.6768L5.63922 10.9764" stroke="#404040" stroke-width="1.5" stroke-linecap="round" stroke-linejoin="round"/>
</svg>
