<svg width="42" height="42" viewBox="0 0 42 42" fill="none" xmlns="http://www.w3.org/2000/svg">
<g clip-path="url(#clip0)">
<path d="M21.0001 0C32.598 0 42.0001 9.40206 42.0001 21.0001C42.0001 32.598 32.598 42.0001 21.0001 42.0001C9.40206 42.0001 0 32.598 0 21.0001C0 9.40206 9.40206 0 21.0001 0Z" fill="#F4B844"/>
<path d="M21.0001 36.8253C29.7402 36.8253 36.8255 29.7401 36.8255 21C36.8255 12.2599 29.7402 5.17468 21.0001 5.17468C12.26 5.17468 5.1748 12.2599 5.1748 21C5.1748 29.7401 12.26 36.8253 21.0001 36.8253Z" fill="#FEDB41"/>
<path d="M26.3613 14.5725H22.0789C22.6147 14.8571 23.0165 15.207 23.2844 15.6223C23.5599 16.0377 23.7398 16.5107 23.824 17.0413H26.3613V18.6449H23.801C23.648 19.4833 23.2614 20.2101 22.6414 20.8253C22.0291 21.4406 21.214 21.8829 20.196 22.152C20.5251 22.3289 20.8083 22.5866 21.0456 22.925L25.8447 29.4893H23.8584C23.4604 29.4893 23.1658 29.3316 22.9744 29.0163L18.7034 23.1096C18.5733 22.925 18.4317 22.7943 18.2786 22.7173C18.1332 22.6327 17.9036 22.5904 17.5897 22.5904H15.6609V21.0445H17.8194C18.8986 21.0445 19.7597 20.8253 20.4026 20.387C21.0532 19.9486 21.4742 19.3679 21.6655 18.6449H15.6379V17.0413H21.7115C21.566 16.2722 21.1757 15.68 20.5404 15.2647C19.9051 14.8417 19.0287 14.6302 17.9112 14.6302H15.6609V12.9574H26.3613V14.5725Z" fill="#F4B844"/>
</g>
<defs>
<clipPath id="clip0">
<rect width="42" height="42" fill="white"/>
</clipPath>
</defs>
</svg>
