<svg width="129" height="114" viewBox="0 0 129 114" fill="none" xmlns="http://www.w3.org/2000/svg">
<path d="M116.235 12.548C113.247 9.52099 109.7 7.11977 105.796 5.4815C101.892 3.84322 97.7078 3 93.4819 3C89.256 3 85.0716 3.84322 81.1675 5.4815C77.2635 7.11977 73.7164 9.52099 70.729 12.548L64.529 18.8271L58.3289 12.548C52.2945 6.43654 44.11 3.00317 35.576 3.00317C27.042 3.00317 18.8575 6.43654 12.823 12.548C6.78856 18.6594 3.39844 26.9483 3.39844 35.5912C3.39844 44.2341 6.78856 52.523 12.823 58.6344L19.023 64.9136L64.529 111L110.035 64.9136L116.235 58.6344C119.224 55.6089 121.595 52.0165 123.212 48.0627C124.83 44.1089 125.663 39.871 125.663 35.5912C125.663 31.3114 124.83 27.0735 123.212 23.1197C121.595 19.1659 119.224 15.5736 116.235 12.548V12.548Z" stroke="#2F243A" stroke-width="5" stroke-linecap="round" stroke-linejoin="round"/>
</svg>
