<svg width="16" height="14" viewBox="0 0 16 14" fill="none" xmlns="http://www.w3.org/2000/svg">
<path d="M14.4685 1.20887C14.0854 0.825622 13.6306 0.521604 13.13 0.314182C12.6294 0.10676 12.0928 0 11.551 0C11.0091 0 10.4725 0.10676 9.97195 0.314182C9.47136 0.521604 9.01654 0.825622 8.63347 1.20887L7.83847 2.00387L7.04347 1.20887C6.2697 0.4351 5.22024 0.000401072 4.12597 0.00040108C3.03169 0.000401088 1.98224 0.4351 1.20847 1.20887C0.434699 1.98264 8.15298e-09 3.03209 0 4.12637C-8.15298e-09 5.22064 0.434699 6.2701 1.20847 7.04387L2.00347 7.83887L7.83847 13.6739L13.6735 7.83887L14.4685 7.04387C14.8517 6.6608 15.1557 6.20598 15.3632 5.70539C15.5706 5.20479 15.6773 4.66823 15.6773 4.12637C15.6773 3.5845 15.5706 3.04795 15.3632 2.54735C15.1557 2.04676 14.8517 1.59194 14.4685 1.20887Z" fill="#FAC9B8"/>
</svg>
