<svg width="19" height="16" viewBox="0 0 19 16" fill="none" xmlns="http://www.w3.org/2000/svg">
<path d="M14.4685 2.20887C14.0854 1.82562 13.6306 1.5216 13.13 1.31418C12.6294 1.10676 12.0928 1 11.551 1C11.0091 1 10.4725 1.10676 9.97195 1.31418C9.47136 1.5216 9.01654 1.82562 8.63347 2.20887L7.83847 3.00387L7.04347 2.20887C6.2697 1.4351 5.22024 1.0004 4.12597 1.0004C3.03169 1.0004 1.98224 1.4351 1.20847 2.20887C0.434699 2.98264 8.15298e-09 4.03209 0 5.12637C-8.15298e-09 6.22064 0.434699 7.2701 1.20847 8.04387L2.00347 8.83887L7.83847 14.6739L13.6735 8.83887L14.4685 8.04387C14.8517 7.6608 15.1557 7.20598 15.3632 6.70539C15.5706 6.20479 15.6773 5.66823 15.6773 5.12637C15.6773 4.5845 15.5706 4.04795 15.3632 3.54735C15.1557 3.04676 14.8517 2.59194 14.4685 2.20887Z" fill="#FAC9B8"/>
<path d="M16.6286 2.20887C16.2456 1.82562 15.7907 1.5216 15.2901 1.31418C14.7895 1.10676 14.253 1 13.7111 1C13.1693 1 12.6327 1.10676 12.1321 1.31418C11.6315 1.5216 11.1767 1.82562 10.7936 2.20887L9.99862 3.00387L9.20362 2.20887C8.42986 1.4351 7.3804 1.0004 6.28612 1.0004C5.19185 1.0004 4.14239 1.4351 3.36862 2.20887C2.59486 2.98264 2.16016 4.03209 2.16016 5.12637C2.16016 6.22064 2.59486 7.2701 3.36862 8.04387L4.16362 8.83887L9.99862 14.6739L15.8336 8.83887L16.6286 8.04387C17.0119 7.6608 17.3159 7.20598 17.5233 6.70539C17.7307 6.20479 17.8375 5.66823 17.8375 5.12637C17.8375 4.5845 17.7307 4.04795 17.5233 3.54735C17.3159 3.04676 17.0119 2.59194 16.6286 2.20887V2.20887Z" stroke="#2F243A" stroke-linecap="round" stroke-linejoin="round"/>
</svg>
