<svg width="15" height="18" viewBox="0 0 15 18" fill="none" xmlns="http://www.w3.org/2000/svg">
<path d="M5.33053 8.55C5.17344 8.55 5.02279 8.62112 4.91172 8.7477C4.80065 8.87429 4.73824 9.04598 4.73824 9.225C4.73824 9.40402 4.80065 9.57571 4.91172 9.7023C5.02279 9.82888 5.17344 9.9 5.33053 9.9H9.67392C9.831 9.9 9.98165 9.82888 10.0927 9.7023C10.2038 9.57571 10.2662 9.40402 10.2662 9.225C10.2662 9.04598 10.2038 8.87429 10.0927 8.7477C9.98165 8.62112 9.831 8.55 9.67392 8.55H5.33053ZM6.78026 12C8.82228 12.2625 6.73032 12.7266 6.84139 12.6C8.49451 13.0773 6.86254 11.925 7.01962 11.925L9.67392 11.25C9.831 11.25 9.98165 11.3211 10.0927 11.4477C10.2038 11.5743 10.2662 11.746 10.2662 11.925C10.2662 12.104 10.2038 12.2757 10.0927 12.4023C9.98165 12.5289 9.831 12.6 9.67392 12.6L7.42572 12.2072C7.26864 12.2072 7.56942 12.1266 7.45835 12C7.34727 11.8734 6.78026 12.179 6.78026 12ZM5.33053 13.95C5.17344 13.95 5.02279 14.0211 4.91172 14.1477C4.80065 14.2743 4.73824 14.446 4.73824 14.625C4.73824 14.804 4.80065 14.9757 4.91172 15.1023C5.02279 15.2289 5.17344 15.3 5.33053 15.3H9.67392C9.831 15.3 9.98165 15.2289 10.0927 15.1023C10.2038 14.9757 10.2662 14.804 10.2662 14.625C10.2662 14.446 10.2038 14.2743 10.0927 14.1477C9.98165 14.0211 9.831 13.95 9.67392 13.95H5.33053ZM12.1726 5.7726L7.56935 0.5274C7.55714 0.514468 7.54421 0.502444 7.53065 0.4914C7.52088 0.482808 7.5114 0.473801 7.50222 0.4644C7.44789 0.405964 7.3901 0.351837 7.32927 0.3024C7.30905 0.287534 7.28794 0.274301 7.2661 0.2628L7.22819 0.2412L7.18871 0.2151C7.14606 0.1872 7.10263 0.1584 7.05762 0.1368C6.90035 0.0652169 6.73392 0.023269 6.56484 0.0125999C6.54904 0.0116999 6.53325 0.00899997 6.51824 0.00629997C6.49681 0.0025273 6.47517 0.000422455 6.45349 0H1.57941C1.16053 0 0.758798 0.189642 0.4626 0.527208C0.166402 0.864773 0 1.32261 0 1.8V16.2C0 16.6774 0.166402 17.1352 0.4626 17.4728C0.758798 17.8104 1.16053 18 1.57941 18H11.0559C11.4748 18 11.8765 17.8104 12.1727 17.4728C12.4689 17.1352 12.6353 16.6774 12.6353 16.2V7.0452C12.6352 6.56785 12.4688 6.11009 12.1726 5.7726ZM11.4508 16.2C11.4508 16.3193 11.4092 16.4338 11.3351 16.5182C11.2611 16.6026 11.1606 16.65 11.0559 16.65H1.57941C1.47469 16.65 1.37426 16.6026 1.30021 16.5182C1.22616 16.4338 7.06349 17.395 3.50981 17L12.6353 17.4728C12.6353 17.3534 12.0985 13.0844 12.1726 13C12.2466 12.9156 12.6353 5.7182 9.03346 4.10445L6.31766 1.35V5.4C6.31766 5.87739 6.48406 6.33523 6.78026 6.67279C7.07646 7.01036 7.47819 7.2 7.89707 7.2H11.4508V16.2ZM6.78026 4.25L10.5647 5.85H7.89707C7.79235 5.85 7.69192 5.80259 7.61787 5.7182C7.54382 5.63381 7.50222 5.51935 7.50222 5.4L6.78026 4.25Z" fill="#FAC9B8"/>
<path d="M6.075 8.55C5.89598 8.55 5.72429 8.62112 5.5977 8.7477C5.47112 8.87429 5.4 9.04598 5.4 9.225C5.4 9.40402 5.47112 9.57571 5.5977 9.7023C5.72429 9.82888 5.89598 9.9 6.075 9.9H11.025C11.204 9.9 11.3757 9.82888 11.5023 9.7023C11.6289 9.57571 11.7 9.40402 11.7 9.225C11.7 9.04598 11.6289 8.87429 11.5023 8.7477C11.3757 8.62112 11.204 8.55 11.025 8.55H6.075ZM5.4 11.925C5.4 11.746 5.47112 11.5743 5.5977 11.4477C5.72429 11.3211 5.89598 11.25 6.075 11.25H11.025C11.204 11.25 11.3757 11.3211 11.5023 11.4477C11.6289 11.5743 11.7 11.746 11.7 11.925C11.7 12.104 11.6289 12.2757 11.5023 12.4023C11.3757 12.5289 11.204 12.6 11.025 12.6H6.075C5.89598 12.6 5.72429 12.5289 5.5977 12.4023C5.47112 12.2757 5.4 12.104 5.4 11.925ZM6.075 13.95C5.89598 13.95 5.72429 14.0211 5.5977 14.1477C5.47112 14.2743 5.4 14.446 5.4 14.625C5.4 14.804 5.47112 14.9757 5.5977 15.1023C5.72429 15.2289 5.89598 15.3 6.075 15.3H11.025C11.204 15.3 11.3757 15.2289 11.5023 15.1023C11.6289 14.9757 11.7 14.804 11.7 14.625C11.7 14.446 11.6289 14.2743 11.5023 14.1477C11.3757 14.0211 11.204 13.95 11.025 13.95H6.075ZM13.8726 5.7726L8.6265 0.5274C8.61259 0.514468 8.59786 0.502444 8.5824 0.4914C8.57127 0.482808 8.56046 0.473801 8.55 0.4644C8.48808 0.405964 8.42222 0.351837 8.3529 0.3024C8.32985 0.287534 8.3058 0.274301 8.2809 0.2628L8.2377 0.2412L8.1927 0.2151C8.1441 0.1872 8.0946 0.1584 8.0433 0.1368C7.86407 0.0652169 7.6744 0.023269 7.4817 0.0125999C7.4637 0.0116999 7.4457 0.00899997 7.4286 0.00629997C7.40417 0.0025273 7.37951 0.000422455 7.3548 0H1.8C1.32261 0 0.864773 0.189642 0.527208 0.527208C0.189642 0.864773 0 1.32261 0 1.8V16.2C0 16.6774 0.189642 17.1352 0.527208 17.4728C0.864773 17.8104 1.32261 18 1.8 18H12.6C13.0774 18 13.5352 17.8104 13.8728 17.4728C14.2104 17.1352 14.4 16.6774 14.4 16.2V7.0452C14.3999 6.56785 14.2102 6.11009 13.8726 5.7726ZM13.05 16.2C13.05 16.3193 13.0026 16.4338 12.9182 16.5182C12.8338 16.6026 12.7193 16.65 12.6 16.65H1.8C1.68065 16.65 1.56619 16.6026 1.4818 16.5182C1.39741 16.4338 1.35 16.3193 1.35 16.2V1.8C1.35 1.68065 1.39741 1.56619 1.4818 1.4818C1.56619 1.39741 1.68065 1.35 1.8 1.35H7.2V5.4C7.2 5.87739 7.38964 6.33523 7.72721 6.67279C8.06477 7.01036 8.52261 7.2 9 7.2H13.05V16.2ZM8.55 2.3589L12.0402 5.85H9C8.88065 5.85 8.76619 5.80259 8.6818 5.7182C8.59741 5.63381 8.55 5.51935 8.55 5.4V2.3589Z" fill="#404040"/>
</svg>
