<svg width="43" height="29" viewBox="0 0 43 29" fill="none" xmlns="http://www.w3.org/2000/svg">
<path d="M28.894 27.2099C36.1317 27.2099 41.999 21.3426 41.999 14.1049C41.999 6.86728 36.1317 1 28.894 1C21.6563 1 15.7891 6.86728 15.7891 14.1049C15.7891 21.3426 21.6563 27.2099 28.894 27.2099Z" fill="#FAC9B8" stroke="#FAC9B8" stroke-width="2" stroke-linecap="round" stroke-linejoin="round"/>
<path d="M28.8945 6.24219V14.1052L34.1365 16.7261" fill="#FAC9B8"/>
<path d="M28.8945 6.24219V14.1052L34.1365 16.7261" stroke="#F2F2F2" stroke-width="2" stroke-linecap="round" stroke-linejoin="round"/>
<path d="M3.59766 10.7527H13.0454" stroke="#FAC9B8" stroke-width="2" stroke-linecap="round"/>
<path d="M5.42578 14.4101L12.7402 14.4101" stroke="#FAC9B8" stroke-width="2" stroke-linecap="round"/>
<path d="M6.64453 18.0673H12.7399" stroke="#FAC9B8" stroke-width="2" stroke-linecap="round"/>
<path d="M26.2964 27.2099C33.534 27.2099 39.4013 21.3426 39.4013 14.1049C39.4013 6.86728 33.534 1 26.2964 1C19.0587 1 13.1914 6.86728 13.1914 14.1049C13.1914 21.3426 19.0587 27.2099 26.2964 27.2099Z" stroke="#404040" stroke-width="2" stroke-linecap="round" stroke-linejoin="round"/>
<path d="M26.2969 6.24219V14.1052L31.5389 16.7261" stroke="#404040" stroke-width="2" stroke-linecap="round" stroke-linejoin="round"/>
<path d="M1 10.7527H10.4478" stroke="#404040" stroke-width="2" stroke-linecap="round"/>
<path d="M2.82812 14.4101L10.1425 14.4101" stroke="#404040" stroke-width="2" stroke-linecap="round"/>
<path d="M4.04688 18.0673H10.1422" stroke="#404040" stroke-width="2" stroke-linecap="round"/>
</svg>
