<svg width="19" height="18" viewBox="0 0 19 18" fill="none" xmlns="http://www.w3.org/2000/svg">
<path d="M8 17C12.4183 17 16 13.4183 16 9C16 4.58172 12.4183 1 8 1C3.58172 1 0 4.58172 0 9C0 13.4183 3.58172 17 8 17Z" fill="#FAC9B8"/>
<path d="M10 17C14.4183 17 18 13.4183 18 9C18 4.58172 14.4183 1 10 1C5.58172 1 2 4.58172 2 9C2 13.4183 5.58172 17 10 17Z" stroke="#404040" stroke-width="2" stroke-linecap="round" stroke-linejoin="round"/>
<path d="M12.318 6.242H10.08C10.36 6.39 10.57 6.572 10.71 6.788C10.854 7.004 10.948 7.25 10.992 7.526H12.318V8.36H10.98C10.9 8.796 10.698 9.174 10.374 9.494C10.054 9.814 9.628 10.044 9.096 10.184C9.268 10.276 9.416 10.41 9.54 10.586L12.048 14H11.01C10.802 14 10.648 13.918 10.548 13.754L8.316 10.682C8.248 10.586 8.174 10.518 8.094 10.478C8.018 10.434 7.898 10.412 7.734 10.412H6.726V9.608H7.854C8.418 9.608 8.868 9.494 9.204 9.266C9.544 9.038 9.764 8.736 9.864 8.36H6.714V7.526H9.888C9.812 7.126 9.608 6.818 9.276 6.602C8.944 6.382 8.486 6.272 7.902 6.272H6.726V5.402H12.318V6.242Z" fill="white"/>
<path d="M13.318 6.242H11.08C11.36 6.39 11.57 6.572 11.71 6.788C11.854 7.004 11.948 7.25 11.992 7.526H13.318V8.36H11.98C11.9 8.796 11.698 9.174 11.374 9.494C11.054 9.814 10.628 10.044 10.096 10.184C10.268 10.276 10.416 10.41 10.54 10.586L13.048 14H12.01C11.802 14 11.648 13.918 11.548 13.754L9.316 10.682C9.248 10.586 9.174 10.518 9.094 10.478C9.018 10.434 8.898 10.412 8.734 10.412H7.726V9.608H8.854C9.418 9.608 9.868 9.494 10.204 9.266C10.544 9.038 10.764 8.736 10.864 8.36H7.714V7.526H10.888C10.812 7.126 10.608 6.818 10.276 6.602C9.944 6.382 9.486 6.272 8.902 6.272H7.726V5.402H13.318V6.242Z" fill="#404040"/>
</svg>
