<svg width="38" height="30" viewBox="0 0 38 30" fill="none" xmlns="http://www.w3.org/2000/svg">
<path d="M3.09375 9.27522C3.09375 8.21446 3.51513 7.19715 4.2652 6.44708C5.01527 5.69702 6.03258 5.27563 7.09333 5.27563H33.9996C35.0604 5.27563 36.0777 5.69702 36.8277 6.44708C37.5778 7.19715 37.9992 8.21446 37.9992 9.27522V12.5476H3.09375V9.27522Z" fill="#FAC9B8"/>
<path d="M3.09375 14.7286H37.9992V26.0001C37.9992 27.0609 37.5778 28.0782 36.8277 28.8283C36.0777 29.5783 35.0604 29.9997 33.9996 29.9997H7.09333C6.03258 29.9997 5.01527 29.5783 4.2652 28.8283C3.51513 28.0782 3.09375 27.0609 3.09375 26.0001V14.7286Z" fill="#FAC9B8"/>
<path d="M1 9.27522C1 8.47968 1.31603 7.71672 1.87856 7.15419C2.44109 6.59166 3.20404 6.27563 3.99958 6.27563H30.9059C31.7014 6.27563 32.4643 6.59166 33.0269 7.15419C33.5894 7.71672 33.9054 8.47968 33.9054 9.27522V11.5476H1V9.27522Z" stroke="#404040" stroke-width="2"/>
<path d="M1 15.7286H33.9054V26.0001C33.9054 26.7957 33.5894 27.5586 33.0269 28.1211C32.4643 28.6837 31.7014 28.9997 30.9059 28.9997H3.99958C3.20404 28.9997 2.44109 28.6837 1.87856 28.1211C1.31603 27.5586 1 26.7957 1 26.0001V15.7286Z" stroke="#404040" stroke-width="2"/>
<path d="M29.8156 21.9098C29.8156 21.9098 37.8147 17.7103 37.8147 11.4109V4.06172L29.8156 0.912048L21.8164 4.06172V11.4109C21.8164 17.7103 29.8156 21.9098 29.8156 21.9098Z" fill="#F2F2F2"/>
<path d="M31.8159 17.9102C31.8159 17.9102 36.8154 15.3105 36.8154 11.4109V6.86136L31.8159 4.91156L26.8164 6.86136V11.4109C26.8164 15.3105 31.8159 17.9102 31.8159 17.9102Z" fill="#FAC9B8"/>
<path d="M29.8159 17.9102C29.8159 17.9102 34.8154 15.3105 34.8154 11.4109V6.86136L29.8159 4.91156L24.8164 6.86136V11.4109C24.8164 15.3105 29.8159 17.9102 29.8159 17.9102Z" stroke="#404040" stroke-width="1.5" stroke-linecap="round" stroke-linejoin="round"/>
</svg>
