<svg width="20" height="20" viewBox="0 0 20 20" fill="none" xmlns="http://www.w3.org/2000/svg">
<g clip-path="url(#clip0)">
<path d="M7.5013 18.3333C7.96154 18.3333 8.33463 17.9602 8.33463 17.5C8.33463 17.0398 7.96154 16.6667 7.5013 16.6667C7.04106 16.6667 6.66797 17.0398 6.66797 17.5C6.66797 17.9602 7.04106 18.3333 7.5013 18.3333Z" stroke="#404040" stroke-width="2" stroke-linecap="round" stroke-linejoin="round"/>
<path d="M16.6654 18.3333C17.1256 18.3333 17.4987 17.9602 17.4987 17.5C17.4987 17.0398 17.1256 16.6667 16.6654 16.6667C16.2051 16.6667 15.832 17.0398 15.832 17.5C15.832 17.9602 16.2051 18.3333 16.6654 18.3333Z" stroke="#404040" stroke-width="2" stroke-linecap="round" stroke-linejoin="round"/>
<path d="M0.832031 0.833344H4.16536L6.3987 11.9917C6.4749 12.3753 6.68362 12.72 6.98832 12.9653C7.29302 13.2105 7.67428 13.3408 8.06536 13.3333H16.1654C16.5564 13.3408 16.9377 13.2105 17.2424 12.9653C17.5471 12.72 17.7558 12.3753 17.832 11.9917L19.1654 5.00001H4.9987" stroke="#404040" stroke-width="2" stroke-linecap="round" stroke-linejoin="round"/>
</g>
<defs>
<clipPath id="clip0">
<rect width="20" height="20" fill="white"/>
</clipPath>
</defs>
</svg>
