<svg width="19" height="16" viewBox="0 0 19 16" fill="none" xmlns="http://www.w3.org/2000/svg">
<path d="M16.6286 2.20887C16.2456 1.82562 15.7907 1.5216 15.2901 1.31418C14.7895 1.10676 14.253 1 13.7111 1C13.1693 1 12.6327 1.10676 12.1321 1.31418C11.6315 1.5216 11.1767 1.82562 10.7936 2.20887L9.99862 3.00387L9.20362 2.20887C8.42986 1.4351 7.3804 1.0004 6.28612 1.0004C5.19185 1.0004 4.14239 1.4351 3.36862 2.20887C2.59486 2.98264 2.16016 4.03209 2.16016 5.12637C2.16016 6.22064 2.59486 7.2701 3.36862 8.04387L4.16362 8.83887L9.99862 14.6739L15.8336 8.83887L16.6286 8.04387C17.0119 7.6608 17.3159 7.20598 17.5233 6.70539C17.7307 6.20479 17.8375 5.66823 17.8375 5.12637C17.8375 4.5845 17.7307 4.04795 17.5233 3.54735C17.3159 3.04676 17.0119 2.59194 16.6286 2.20887V2.20887Z" stroke="#2F243A" stroke-linecap="round" stroke-linejoin="round"/>
</svg>
