<svg width="30" height="30" viewBox="0 0 30 30" fill="none" xmlns="http://www.w3.org/2000/svg">
<path opacity="0.2" d="M30 15C30 6.71573 23.2843 0 15 0C6.71573 0 0 6.71573 0 15C0 23.2843 6.71573 30 15 30C23.2843 30 30 23.2843 30 15Z" fill="#FAC9B8"/>
<path opacity="0.3" d="M22.9629 8.34092C22.2536 8.84192 21.4683 9.22509 20.6371 9.47576C20.1911 8.96209 19.5982 8.59809 18.9388 8.43284C18.2794 8.26766 17.5852 8.30921 16.9501 8.55192C16.3151 8.79467 15.7697 9.22684 15.388 9.79001C15.0061 10.3532 14.8063 11.0202 14.8154 11.7008V12.4424C13.5138 12.4762 12.224 12.1872 11.061 11.6009C9.89788 11.0148 8.89763 10.1497 8.14933 9.08267C8.14933 9.08267 5.18661 15.7577 11.8527 18.7243C10.3273 19.7612 8.51014 20.2811 6.66797 20.2078C13.3341 23.9161 21.4816 20.2078 21.4816 11.6785C21.4808 11.4719 21.461 11.2658 21.4223 11.0629C22.1782 10.3164 22.7116 9.37392 22.9629 8.34092Z" fill="white"/>
</svg>
