<svg width="34" height="34" viewBox="0 0 34 34" fill="none" xmlns="http://www.w3.org/2000/svg">
<path opacity="0.8" d="M34 17C34 7.61116 26.3888 0 17 0C7.61116 0 0 7.61116 0 17C0 26.3888 7.61116 34 17 34C26.3888 34 34 26.3888 34 17Z" fill="#FAC9B8"/>
<path d="M16.5 17.0336C18.9937 17.0336 20.875 15.0913 20.875 12.5168C20.875 9.94221 18.9937 8 16.5 8C14.0062 8 12.125 9.94221 12.125 12.5168C12.125 15.0913 14.0062 17.0336 16.5 17.0336ZM17.75 18.257H15.25C11.8038 18.257 9 21.1516 9 24.7095V26H24V24.7095C24 21.1516 21.1962 18.257 17.75 18.257Z" fill="#614F5C"/>
</svg>
