<svg width="23" height="20" viewBox="0 0 23 20" fill="none" xmlns="http://www.w3.org/2000/svg">
<path d="M9 7H16.5" stroke="#FAC9B8" stroke-linecap="round"/>
<path d="M11 10H15" stroke="#FAC9B8" stroke-linecap="round"/>
<path d="M22 13C22 13.5304 21.7893 14.0391 21.4142 14.4142C21.0391 14.7893 20.5304 15 20 15H8L4 19V3C4 2.46957 4.21071 1.96086 4.58579 1.58579C4.96086 1.21071 5.46957 1 6 1H20C20.5304 1 21.0391 1.21071 21.4142 1.58579C21.7893 1.96086 22 2.46957 22 3V13Z" stroke="#FAC9B8" stroke-width="2" stroke-linecap="round" stroke-linejoin="round"/>
<path d="M6 7H13.5" stroke="#404040" stroke-linecap="round"/>
<path d="M8 10H12" stroke="#404040" stroke-linecap="round"/>
<path d="M19 13C19 13.5304 18.7893 14.0391 18.4142 14.4142C18.0391 14.7893 17.5304 15 17 15H5L1 19V3C1 2.46957 1.21071 1.96086 1.58579 1.58579C1.96086 1.21071 2.46957 1 3 1H17C17.5304 1 18.0391 1.21071 18.4142 1.58579C18.7893 1.96086 19 2.46957 19 3V13Z" stroke="#404040" stroke-width="2" stroke-linecap="round" stroke-linejoin="round"/>
</svg>
