<svg width="40" height="40" viewBox="0 0 40 40" fill="none" xmlns="http://www.w3.org/2000/svg">
<path opacity="0.8" d="M40 20C40 8.95431 31.0457 0 20 0C8.95431 0 0 8.95431 0 20C0 31.0457 8.95431 40 20 40C31.0457 40 40 31.0457 40 20Z" fill="#FAC9B8"/>
<path d="M19.5 30C24.7467 30 29 25.7467 29 20.5C29 15.2533 24.7467 11 19.5 11C14.2533 11 10 15.2533 10 20.5C10 25.7467 14.2533 30 19.5 30Z" stroke="#404040" stroke-width="2" stroke-linecap="round" stroke-linejoin="round"/>
<path d="M23.424 16.656H20.44C20.8133 16.8533 21.0933 17.096 21.28 17.384C21.472 17.672 21.5973 18 21.656 18.368H23.424V19.48H21.64C21.5333 20.0613 21.264 20.5653 20.832 20.992C20.4053 21.4187 19.8373 21.7253 19.128 21.912C19.3573 22.0347 19.5547 22.2133 19.72 22.448L23.064 27H21.68C21.4027 27 21.1973 26.8907 21.064 26.672L18.088 22.576C17.9973 22.448 17.8987 22.3573 17.792 22.304C17.6907 22.2453 17.5307 22.216 17.312 22.216H15.968V21.144H17.472C18.224 21.144 18.824 20.992 19.272 20.688C19.7253 20.384 20.0187 19.9813 20.152 19.48H15.952V18.368H20.184C20.0827 17.8347 19.8107 17.424 19.368 17.136C18.9253 16.8427 18.3147 16.696 17.536 16.696H15.968V15.536H23.424V16.656Z" fill="#404040"/>
</svg>
