<svg width="40" height="40" viewBox="0 0 40 40" fill="none" xmlns="http://www.w3.org/2000/svg">
<path opacity="0.8" d="M40 20C40 8.95431 31.0457 0 20 0C8.95431 0 0 8.95431 0 20C0 31.0457 8.95431 40 20 40C31.0457 40 40 31.0457 40 20Z" fill="#FAC9B8"/>
<path d="M24 12H9V25H24V12Z" stroke="#404040" stroke-width="2" stroke-linecap="round" stroke-linejoin="round"/>
<path d="M24 17H28L31 20V25H24V17Z" stroke="#404040" stroke-width="2" stroke-linecap="round" stroke-linejoin="round"/>
<path d="M13.5 30C14.8807 30 16 28.8807 16 27.5C16 26.1193 14.8807 25 13.5 25C12.1193 25 11 26.1193 11 27.5C11 28.8807 12.1193 30 13.5 30Z" stroke="#404040" stroke-width="2" stroke-linecap="round" stroke-linejoin="round"/>
<path d="M26.5 30C27.8807 30 29 28.8807 29 27.5C29 26.1193 27.8807 25 26.5 25C25.1193 25 24 26.1193 24 27.5C24 28.8807 25.1193 30 26.5 30Z" stroke="#404040" stroke-width="2" stroke-linecap="round" stroke-linejoin="round"/>
</svg>
