<svg width="40" height="40" viewBox="0 0 40 40" fill="none" xmlns="http://www.w3.org/2000/svg">
<path opacity="0.8" d="M40 20C40 8.95431 31.0457 0 20 0C8.95431 0 0 8.95431 0 20C0 31.0457 8.95431 40 20 40C31.0457 40 40 31.0457 40 20Z" fill="#FAC9B8"/>
<path d="M19.2234 9.67583C19.383 8.81464 20.617 8.81464 20.7766 9.67583C21.18 11.8517 23.8348 12.7143 25.4401 11.1911C26.0754 10.5882 27.0737 11.3135 26.6967 12.1041C25.7441 14.1015 27.3848 16.3598 29.5789 16.071C30.4473 15.9567 30.8286 17.1303 30.0589 17.5483C28.1141 18.6043 28.1141 21.3957 30.0589 22.4517C30.8286 22.8697 30.4472 24.0433 29.5789 23.929C27.3848 23.6402 25.7441 25.8985 26.6967 27.8959C27.0737 28.6865 26.0754 29.4118 25.4401 28.8089C23.8348 27.2857 21.18 28.1483 20.7766 30.3242C20.617 31.1854 19.383 31.1854 19.2234 30.3242C18.82 28.1483 16.1652 27.2857 14.5599 28.8089C13.9246 29.4118 12.9263 28.6865 13.3033 27.8959C14.2559 25.8985 12.6152 23.6402 10.4211 23.929C9.55275 24.0433 9.17144 22.8697 9.94114 22.4517C11.8859 21.3957 11.8859 18.6043 9.94114 17.5483C9.17144 17.1303 9.55275 15.9567 10.4211 16.071C12.6152 16.3598 14.2559 14.1015 13.3033 12.1041C12.9263 11.3135 13.9246 10.5882 14.5599 11.1911C16.1652 12.7143 18.82 11.8517 19.2234 9.67583Z" stroke="#404040" stroke-width="2"/>
<path d="M19.368 17.466C19.368 17.802 19.314 18.102 19.206 18.366C19.102 18.63 18.962 18.854 18.786 19.038C18.61 19.218 18.404 19.358 18.168 19.458C17.936 19.554 17.692 19.602 17.436 19.602C17.16 19.602 16.904 19.554 16.668 19.458C16.436 19.358 16.234 19.218 16.062 19.038C15.89 18.854 15.754 18.63 15.654 18.366C15.558 18.102 15.51 17.802 15.51 17.466C15.51 17.122 15.558 16.816 15.654 16.548C15.754 16.28 15.89 16.054 16.062 15.87C16.234 15.682 16.436 15.54 16.668 15.444C16.904 15.344 17.16 15.294 17.436 15.294C17.712 15.294 17.966 15.344 18.198 15.444C18.434 15.54 18.638 15.682 18.81 15.87C18.986 16.054 19.122 16.28 19.218 16.548C19.318 16.816 19.368 17.122 19.368 17.466ZM18.456 17.466C18.456 17.21 18.428 16.994 18.372 16.818C18.32 16.638 18.248 16.494 18.156 16.386C18.064 16.274 17.956 16.194 17.832 16.146C17.708 16.094 17.576 16.068 17.436 16.068C17.296 16.068 17.164 16.094 17.04 16.146C16.916 16.194 16.808 16.274 16.716 16.386C16.628 16.494 16.558 16.638 16.506 16.818C16.454 16.994 16.428 17.21 16.428 17.466C16.428 17.714 16.454 17.926 16.506 18.102C16.558 18.274 16.628 18.414 16.716 18.522C16.808 18.63 16.916 18.708 17.04 18.756C17.164 18.804 17.296 18.828 17.436 18.828C17.576 18.828 17.708 18.804 17.832 18.756C17.956 18.708 18.064 18.63 18.156 18.522C18.248 18.414 18.32 18.274 18.372 18.102C18.428 17.926 18.456 17.714 18.456 17.466ZM22.368 15.576C22.412 15.524 22.462 15.48 22.518 15.444C22.578 15.404 22.66 15.384 22.764 15.384H23.61L17.286 23.814C17.242 23.87 17.19 23.916 17.13 23.952C17.07 23.984 16.998 24 16.914 24H16.044L22.368 15.576ZM24.162 21.966C24.162 22.302 24.108 22.602 24 22.866C23.896 23.13 23.756 23.354 23.58 23.538C23.404 23.718 23.198 23.858 22.962 23.958C22.73 24.054 22.486 24.102 22.23 24.102C21.954 24.102 21.698 24.054 21.462 23.958C21.23 23.858 21.028 23.718 20.856 23.538C20.684 23.354 20.548 23.13 20.448 22.866C20.352 22.602 20.304 22.302 20.304 21.966C20.304 21.622 20.352 21.316 20.448 21.048C20.548 20.78 20.684 20.554 20.856 20.37C21.028 20.182 21.23 20.04 21.462 19.944C21.698 19.848 21.954 19.8 22.23 19.8C22.506 19.8 22.76 19.848 22.992 19.944C23.228 20.04 23.432 20.182 23.604 20.37C23.78 20.554 23.916 20.78 24.012 21.048C24.112 21.316 24.162 21.622 24.162 21.966ZM23.25 21.966C23.25 21.71 23.222 21.494 23.166 21.318C23.114 21.142 23.042 21 22.95 20.892C22.858 20.78 22.75 20.7 22.626 20.652C22.502 20.6 22.37 20.574 22.23 20.574C22.086 20.574 21.952 20.6 21.828 20.652C21.708 20.7 21.602 20.78 21.51 20.892C21.422 21 21.352 21.142 21.3 21.318C21.248 21.494 21.222 21.71 21.222 21.966C21.222 22.218 21.248 22.43 21.3 22.602C21.352 22.774 21.422 22.914 21.51 23.022C21.602 23.13 21.708 23.208 21.828 23.256C21.952 23.304 22.086 23.328 22.23 23.328C22.37 23.328 22.502 23.304 22.626 23.256C22.75 23.208 22.858 23.13 22.95 23.022C23.042 22.914 23.114 22.774 23.166 22.602C23.222 22.43 23.25 22.218 23.25 21.966Z" fill="#404040"/>
</svg>
