<svg width="15" height="17" viewBox="0 0 15 17" fill="none" xmlns="http://www.w3.org/2000/svg">
<path d="M1 3.60001H2.44444H14" stroke="#404040" stroke-linecap="round" stroke-linejoin="round"/>
<path d="M4.52856 3.86V2.43C4.52856 2.05074 4.68509 1.68701 4.96371 1.41884C5.24234 1.15066 5.62024 1 6.01427 1H8.9857C9.37974 1 9.75763 1.15066 10.0363 1.41884C10.3149 1.68701 10.4714 2.05074 10.4714 2.43V3.86M12.7 3.86V13.87C12.7 14.2493 12.5435 14.613 12.2648 14.8812C11.9862 15.1493 11.6083 15.3 11.2143 15.3H3.7857C3.39167 15.3 3.01377 15.1493 2.73514 14.8812C2.45652 14.613 2.29999 14.2493 2.29999 13.87V3.86H12.7Z" stroke="#404040" stroke-width="1.5" stroke-linecap="round" stroke-linejoin="round"/>
</svg>
