<svg width="40" height="40" viewBox="0 0 40 40" fill="none" xmlns="http://www.w3.org/2000/svg">
<path opacity="0.8" d="M40 20C40 8.95431 31.0457 0 20 0C8.95431 0 0 8.95431 0 20C0 31.0457 8.95431 40 20 40C31.0457 40 40 31.0457 40 20Z" fill="#FAC9B8"/>
<g clip-path="url(#clip0)">
<path d="M15.6263 30.0833C16.1556 30.0833 16.5846 29.6542 16.5846 29.125C16.5846 28.5957 16.1556 28.1666 15.6263 28.1666C15.097 28.1666 14.668 28.5957 14.668 29.125C14.668 29.6542 15.097 30.0833 15.6263 30.0833Z" stroke="#404040" stroke-width="2.5" stroke-linecap="round" stroke-linejoin="round"/>
<path d="M26.1654 30.0833C26.6946 30.0833 27.1237 29.6542 27.1237 29.125C27.1237 28.5957 26.6946 28.1666 26.1654 28.1666C25.6361 28.1666 25.207 28.5957 25.207 29.125C25.207 29.6542 25.6361 30.0833 26.1654 30.0833Z" stroke="#404040" stroke-width="2.5" stroke-linecap="round" stroke-linejoin="round"/>
<path d="M7.95703 9.95837H11.7904L14.3587 22.7905C14.4463 23.2317 14.6864 23.628 15.0368 23.9101C15.3872 24.1922 15.8256 24.342 16.2754 24.3334H25.5904C26.0401 24.342 26.4786 24.1922 26.829 23.9101C27.1794 23.628 27.4194 23.2317 27.507 22.7905L29.0404 14.75H12.7487" stroke="#404040" stroke-width="2" stroke-linecap="round" stroke-linejoin="round"/>
</g>
<defs>
<clipPath id="clip0">
<rect width="23" height="23" fill="white" transform="translate(7 9)"/>
</clipPath>
</defs>
</svg>
